<svg xmlns="http://www.w3.org/2000/svg" width="652" height="367" role="img" aria-label="Interactive diagram illustrating a FIFO drop table ring buffer processing uniform packed nodes with real-time Hadamard matrix updates against a Signed Distance Field canvas." viewBox="0 0 800 450" class="w-full h-full block"><style><![CDATA[
/*! tailwindcss v4.1.11 | MIT License | https://tailwindcss.com */
@layer properties {
  @supports (((-webkit-hyphens: none)) and (not (margin-trim: inline))) or ((-moz-orient: inline) and (not (color: rgb(from red r g b)))) {
    *, :before, :after, ::backdrop {
      --tw-translate-x: 0;
      --tw-translate-y: 0;
      --tw-translate-z: 0;
      --tw-rotate-x: initial;
      --tw-rotate-y: initial;
      --tw-rotate-z: initial;
      --tw-skew-x: initial;
      --tw-skew-y: initial;
      --tw-border-style: solid;
      --tw-font-weight: initial;
      --tw-ordinal: initial;
      --tw-slashed-zero: initial;
      --tw-numeric-figure: initial;
      --tw-numeric-spacing: initial;
      --tw-numeric-fraction: initial;
      --tw-shadow: 0 0 #0000;
      --tw-shadow-color: initial;
      --tw-shadow-alpha: 100%;
      --tw-inset-shadow: 0 0 #0000;
      --tw-inset-shadow-color: initial;
      --tw-inset-shadow-alpha: 100%;
      --tw-ring-color: initial;
      --tw-ring-shadow: 0 0 #0000;
      --tw-inset-ring-color: initial;
      --tw-inset-ring-shadow: 0 0 #0000;
      --tw-ring-inset: initial;
      --tw-ring-offset-width: 0px;
      --tw-ring-offset-color: #fff;
      --tw-ring-offset-shadow: 0 0 #0000;
      --tw-content: "";
    }
  }
}

@layer theme {
  :root, :host {
    --font-sans: "Google Sans", "Roboto", sans-serif;
    --font-mono: ui-monospace, SFMono-Regular, Menlo, Monaco, Consolas, "Liberation Mono", "Courier New", monospace;
    --color-slate-100: oklch(96.8% .007 247.896);
    --spacing: .25rem;
    --text-xs: .75rem;
    --text-xs--line-height: calc(1 / .75);
    --text-sm: .875rem;
    --text-sm--line-height: calc(1.25 / .875);
    --text-base: 1rem;
    --text-base--line-height: calc(1.5 / 1);
    --font-weight-medium: 500;
    --radius-lg: .5rem;
    --default-transition-duration: .15s;
    --default-transition-timing-function: cubic-bezier(.31, .94, .34, 1);
    --default-font-family: var(--font-sans);
    --default-mono-font-family: var(--font-mono);
    --color-primary: var(--primary, #336ef3);
    --color-error: var(--brand-red, #ea4335);
    --color-card: var(--surface-container-de-emphasis, #f7f8fa);
    --color-border: var(--divider, #dcdfe5);
    --color-secondary-hover: var(--surface-container-highest, #e1e3e8);
    --color-muted: var(--surface-container, #f0f2f5);
    --color-muted-foreground: var(--on-surface-de-emphasis, #56595e);
    --color-foreground: var(--on-surface-default, #0a0a0a);
  }
}

@layer base {
  *, :after, :before, ::backdrop {
    box-sizing: border-box;
    border: 0 solid;
    margin: 0;
    padding: 0;
  }

  ::file-selector-button {
    box-sizing: border-box;
    border: 0 solid;
    margin: 0;
    padding: 0;
  }

  html, :host {
    -webkit-text-size-adjust: 100%;
    tab-size: 4;
    line-height: 1.5;
    font-family: var(--default-font-family, ui-sans-serif, system-ui, sans-serif, "Apple Color Emoji", "Segoe UI Emoji", "Segoe UI Symbol", "Noto Color Emoji");
    font-feature-settings: var(--default-font-feature-settings, normal);
    font-variation-settings: var(--default-font-variation-settings, normal);
    -webkit-tap-highlight-color: transparent;
  }

  hr {
    height: 0;
    color: inherit;
    border-top-width: 1px;
  }

  abbr:where([title]) {
    -webkit-text-decoration: underline dotted;
    text-decoration: underline dotted;
  }

  h1, h2, h3, h4, h5, h6 {
    font-size: inherit;
    font-weight: inherit;
  }

  a {
    color: inherit;
    -webkit-text-decoration: inherit;
    -webkit-text-decoration: inherit;
    -webkit-text-decoration: inherit;
    text-decoration: inherit;
  }

  b, strong {
    font-weight: bolder;
  }

  code, kbd, samp, pre {
    font-family: var(--default-mono-font-family, ui-monospace, SFMono-Regular, Menlo, Monaco, Consolas, "Liberation Mono", "Courier New", monospace);
    font-feature-settings: var(--default-mono-font-feature-settings, normal);
    font-variation-settings: var(--default-mono-font-variation-settings, normal);
    font-size: 1em;
  }

  small {
    font-size: 80%;
  }

  sub, sup {
    vertical-align: baseline;
    font-size: 75%;
    line-height: 0;
    position: relative;
  }

  sub {
    bottom: -.25em;
  }

  sup {
    top: -.5em;
  }

  table {
    text-indent: 0;
    border-color: inherit;
    border-collapse: collapse;
  }

  :-moz-focusring {
    outline: auto;
  }

  progress {
    vertical-align: baseline;
  }

  summary {
    display: list-item;
  }

  ol, ul, menu {
    list-style: none;
  }

  img, svg, video, canvas, audio, iframe, embed, object {
    vertical-align: middle;
    display: block;
  }

  img, video {
    max-width: 100%;
    height: auto;
  }

  button, input, select, optgroup, textarea {
    font: inherit;
    font-feature-settings: inherit;
    font-variation-settings: inherit;
    letter-spacing: inherit;
    color: inherit;
    opacity: 1;
    background-color: #0000;
    border-radius: 0;
  }

  ::file-selector-button {
    font: inherit;
    font-feature-settings: inherit;
    font-variation-settings: inherit;
    letter-spacing: inherit;
    color: inherit;
    opacity: 1;
    background-color: #0000;
    border-radius: 0;
  }

  :where(select:is([multiple], [size])) optgroup {
    font-weight: bolder;
  }

  :where(select:is([multiple], [size])) optgroup option {
    padding-inline-start: 20px;
  }

  ::file-selector-button {
    margin-inline-end: 4px;
  }

  ::placeholder {
    opacity: 1;
  }

  @supports (not ((-webkit-appearance: -apple-pay-button))) or (contain-intrinsic-size: 1px) {
    ::placeholder {
      color: currentColor;
    }

    @supports (color: color-mix(in lab, red, red)) {
      ::placeholder {
        color: color-mix(in oklab, currentcolor 50%, transparent);
      }
    }
  }

  textarea {
    resize: vertical;
  }

  ::-webkit-search-decoration {
    -webkit-appearance: none;
  }

  ::-webkit-date-and-time-value {
    min-height: 1lh;
    text-align: inherit;
  }

  ::-webkit-datetime-edit {
    display: inline-flex;
  }

  ::-webkit-datetime-edit-fields-wrapper {
    padding: 0;
  }

  ::-webkit-datetime-edit {
    padding-block: 0;
  }

  ::-webkit-datetime-edit-year-field {
    padding-block: 0;
  }

  ::-webkit-datetime-edit-month-field {
    padding-block: 0;
  }

  ::-webkit-datetime-edit-day-field {
    padding-block: 0;
  }

  ::-webkit-datetime-edit-hour-field {
    padding-block: 0;
  }

  ::-webkit-datetime-edit-minute-field {
    padding-block: 0;
  }

  ::-webkit-datetime-edit-second-field {
    padding-block: 0;
  }

  ::-webkit-datetime-edit-millisecond-field {
    padding-block: 0;
  }

  ::-webkit-datetime-edit-meridiem-field {
    padding-block: 0;
  }

  :-moz-ui-invalid {
    box-shadow: none;
  }

  button, input:where([type="button"], [type="reset"], [type="submit"]) {
    appearance: button;
  }

  ::file-selector-button {
    appearance: button;
  }

  ::-webkit-inner-spin-button {
    height: auto;
  }

  ::-webkit-outer-spin-button {
    height: auto;
  }

  [hidden]:where(:not([hidden="until-found"])) {
    display: none !important;
  }
}

@layer components;

@layer utilities {
  .pointer-events-auto {
    pointer-events: auto;
  }

  .pointer-events-none {
    pointer-events: none;
  }

  .absolute {
    position: absolute;
  }

  .relative {
    position: relative;
  }

  .static {
    position: static;
  }

  .inset-x-0 {
    inset-inline: calc(var(--spacing) * 0);
  }

  .top-0 {
    top: calc(var(--spacing) * 0);
  }

  .top-1\/2 {
    top: 50%;
  }

  .top-3 {
    top: calc(var(--spacing) * 3);
  }

  .right-0 {
    right: calc(var(--spacing) * 0);
  }

  .bottom-3 {
    bottom: calc(var(--spacing) * 3);
  }

  .left-4 {
    left: calc(var(--spacing) * 4);
  }

  .z-10 {
    z-index: 10;
  }

  .-my-3 {
    margin-block: calc(var(--spacing) * -3);
  }

  .block {
    display: block;
  }

  .flex {
    display: flex;
  }

  .grid {
    display: grid;
  }

  .table {
    display: table;
  }

  .h-1 {
    height: calc(var(--spacing) * 1);
  }

  .h-9 {
    height: calc(var(--spacing) * 9);
  }

  .h-11 {
    height: calc(var(--spacing) * 11);
  }

  .h-\[18px\] {
    height: 18px;
  }

  .h-full {
    height: 100%;
  }

  .w-9 {
    width: calc(var(--spacing) * 9);
  }

  .w-\[5ch\] {
    width: 5ch;
  }

  .w-\[18px\] {
    width: 18px;
  }

  .w-full {
    width: 100%;
  }

  .min-w-0 {
    min-width: calc(var(--spacing) * 0);
  }

  .flex-1 {
    flex: 1;
  }

  .shrink-0 {
    flex-shrink: 0;
  }

  .grow {
    flex-grow: 1;
  }

  .-translate-y-1\/2 {
    --tw-translate-y: calc(calc(1 / 2 * 100%) * -1);
    translate: var(--tw-translate-x) var(--tw-translate-y);
  }

  .transform {
    transform: var(--tw-rotate-x, ) var(--tw-rotate-y, ) var(--tw-rotate-z, ) var(--tw-skew-x, ) var(--tw-skew-y, );
  }

  .cursor-pointer {
    cursor: pointer;
  }

  .touch-none {
    touch-action: none;
  }

  .grid-cols-1 {
    grid-template-columns: repeat(1, minmax(0, 1fr));
  }

  .flex-col {
    flex-direction: column;
  }

  .items-center {
    align-items: center;
  }

  .justify-between {
    justify-content: space-between;
  }

  .justify-center {
    justify-content: center;
  }

  .justify-end {
    justify-content: flex-end;
  }

  .gap-0\.5 {
    gap: calc(var(--spacing) * .5);
  }

  .gap-1\.5 {
    gap: calc(var(--spacing) * 1.5);
  }

  .gap-3 {
    gap: calc(var(--spacing) * 3);
  }

  .gap-5 {
    gap: calc(var(--spacing) * 5);
  }

  .gap-6 {
    gap: calc(var(--spacing) * 6);
  }

  .gap-x-4 {
    column-gap: calc(var(--spacing) * 4);
  }

  .truncate {
    text-overflow: ellipsis;
    white-space: nowrap;
    overflow: hidden;
  }

  .overflow-hidden {
    overflow: hidden;
  }

  .overflow-visible {
    overflow: visible;
  }

  .rounded-full {
    border-radius: 3.40282e38px;
  }

  .rounded-lg {
    border-radius: var(--radius-lg);
  }

  .border-b {
    border-bottom-style: var(--tw-border-style);
    border-bottom-width: 1px;
  }

  .border-none {
    --tw-border-style: none;
    border-style: none;
  }

  .border-border {
    border-color: var(--color-border);
  }

  .\!bg-muted {
    background-color: var(--color-muted) !important;
  }

  .bg-\[\#070b14\] {
    background-color: #070b14;
  }

  .bg-\[\#070b14\]\/60 {
    background-color: oklab(14.9994% -.00205025 -.0207038 / .6);
  }

  .bg-card {
    background-color: var(--color-card);
  }

  .bg-muted, .bg-muted\/90 {
    background-color: var(--color-muted);
  }

  @supports (color: color-mix(in lab, red, red)) {
    .bg-muted\/90 {
      background-color: color-mix(in oklab, var(--color-muted) 90%, transparent);
    }
  }

  .bg-primary {
    background-color: var(--color-primary);
  }

  .p-3 {
    padding: calc(var(--spacing) * 3);
  }

  .p-5 {
    padding: calc(var(--spacing) * 5);
  }

  .px-2 {
    padding-inline: calc(var(--spacing) * 2);
  }

  .px-3 {
    padding-inline: calc(var(--spacing) * 3);
  }

  .px-5 {
    padding-inline: calc(var(--spacing) * 5);
  }

  .py-0\.5 {
    padding-block: calc(var(--spacing) * .5);
  }

  .py-3 {
    padding-block: calc(var(--spacing) * 3);
  }

  .text-center {
    text-align: center;
  }

  .text-right {
    text-align: right;
  }

  .font-sans {
    font-family: var(--font-sans);
  }

  .\!text-base {
    font-size: var(--text-base) !important;
    line-height: var(--tw-leading, var(--text-base--line-height)) !important;
  }

  .text-sm {
    font-size: var(--text-sm);
    line-height: var(--tw-leading, var(--text-sm--line-height));
  }

  .text-xs {
    font-size: var(--text-xs);
    line-height: var(--tw-leading, var(--text-xs--line-height));
  }

  .font-medium {
    --tw-font-weight: var(--font-weight-medium);
    font-weight: var(--font-weight-medium);
  }

  .text-error {
    color: var(--color-error);
  }

  .text-foreground {
    color: var(--color-foreground);
  }

  .text-muted-foreground {
    color: var(--color-muted-foreground);
  }

  .text-slate-100 {
    color: var(--color-slate-100);
  }

  .tabular-nums {
    --tw-numeric-spacing: tabular-nums;
    font-variant-numeric: var(--tw-ordinal, ) var(--tw-slashed-zero, ) var(--tw-numeric-figure, ) var(--tw-numeric-spacing, ) var(--tw-numeric-fraction, );
  }

  .opacity-0 {
    opacity: 0;
  }

  .shadow {
    --tw-shadow: 0 1px 3px 0 var(--tw-shadow-color, #0000001a), 0 1px 2px -1px var(--tw-shadow-color, #0000001a);
    box-shadow: var(--tw-inset-shadow), var(--tw-inset-ring-shadow), var(--tw-ring-offset-shadow), var(--tw-ring-shadow), var(--tw-shadow);
  }

  .shadow-none {
    --tw-shadow: 0 0 #0000;
    box-shadow: var(--tw-inset-shadow), var(--tw-inset-ring-shadow), var(--tw-ring-offset-shadow), var(--tw-ring-shadow), var(--tw-shadow);
  }

  .ring {
    --tw-ring-shadow: var(--tw-ring-inset, ) 0 0 0 calc(1px + var(--tw-ring-offset-width)) var(--tw-ring-color, currentcolor);
    box-shadow: var(--tw-inset-shadow), var(--tw-inset-ring-shadow), var(--tw-ring-offset-shadow), var(--tw-ring-shadow), var(--tw-shadow);
  }

  .transition-colors {
    transition-property: color, background-color, border-color, outline-color, text-decoration-color, fill, stroke, --tw-gradient-from, --tw-gradient-via, --tw-gradient-to;
    transition-timing-function: var(--tw-ease, var(--default-transition-timing-function));
    transition-duration: var(--tw-duration, var(--default-transition-duration));
  }

  .select-none {
    -webkit-user-select: none;
    user-select: none;
  }

  .after\:absolute:after {
    content: var(--tw-content);
    position: absolute;
  }

  .after\:-inset-1:after {
    content: var(--tw-content);
    inset: calc(var(--spacing) * -1);
  }

  .after\:top-1\/2:after {
    content: var(--tw-content);
    top: 50%;
  }

  .after\:left-1\/2:after {
    content: var(--tw-content);
    left: 50%;
  }

  .after\:h-11:after {
    content: var(--tw-content);
    height: calc(var(--spacing) * 11);
  }

  .after\:w-11:after {
    content: var(--tw-content);
    width: calc(var(--spacing) * 11);
  }

  .after\:-translate-x-1\/2:after {
    content: var(--tw-content);
    --tw-translate-x: calc(calc(1 / 2 * 100%) * -1);
    translate: var(--tw-translate-x) var(--tw-translate-y);
  }

  .after\:-translate-y-1\/2:after {
    content: var(--tw-content);
    --tw-translate-y: calc(calc(1 / 2 * 100%) * -1);
    translate: var(--tw-translate-x) var(--tw-translate-y);
  }

  @media (hover: hover) {
    .hover\:bg-secondary-hover:hover {
      background-color: var(--color-secondary-hover);
    }
  }

  .focus\:outline-none:focus {
    --tw-outline-style: none;
    outline-style: none;
  }

  .focus-visible\:ring-2:focus-visible {
    --tw-ring-shadow: var(--tw-ring-inset, ) 0 0 0 calc(2px + var(--tw-ring-offset-width)) var(--tw-ring-color, currentcolor);
    box-shadow: var(--tw-inset-shadow), var(--tw-inset-ring-shadow), var(--tw-ring-offset-shadow), var(--tw-ring-shadow), var(--tw-shadow);
  }

  .focus-visible\:ring-primary:focus-visible {
    --tw-ring-color: var(--color-primary);
  }

  @media (min-width: 40rem) {
    .sm\:grid-cols-3 {
      grid-template-columns: repeat(3, minmax(0, 1fr));
    }

    .sm\:gap-x-8 {
      column-gap: calc(var(--spacing) * 8);
    }
  }

  @media (min-width: 48rem) {
    .md\:gap-x-12 {
      column-gap: calc(var(--spacing) * 12);
    }
  }
}

@media (prefers-color-scheme: dark) {
  :root:not(.light) {
    --color-primary: var(--primary, #336ef3);
    --color-primary-hover: var(--primary-hover, #395fe1);
    --color-error: var(--brand-red, #ea4335);
    --color-warning: var(--brand-yellow, #fbbc04);
    --color-success: var(--brand-green, #34a853);
    --color-background: var(--surface-container-de-emphasis, #272930);
    --color-card: var(--surface-container-de-emphasis, #272930);
    --color-card-hover: var(--surface-container-high, #363840);
    --color-border: var(--divider, #363840);
    --color-input: var(--surface-container, #2c2e35);
    --color-secondary: var(--surface-container-high, #363840);
    --color-secondary-hover: var(--surface-container-highest, #42444d);
    --color-accent: var(--surface-container-highest, #42444d);
    --color-accent-foreground: var(--on-surface-default, #e6e8f0);
    --color-muted: var(--surface-container, #2c2e35);
    --color-muted-foreground: var(--on-surface-de-emphasis, #adafb8);
    --color-foreground: var(--on-surface-default, #e6e8f0);
    --color-disabled: var(--surface-container, #2c2e35);
    --color-disabled-foreground: var(--disabled-foreground, #797c90);
  }
}

.dark {
  --color-primary: var(--primary, #336ef3);
  --color-primary-hover: var(--primary-hover, #395fe1);
  --color-error: var(--brand-red, #ea4335);
  --color-warning: var(--brand-yellow, #fbbc04);
  --color-success: var(--brand-green, #34a853);
  --color-background: var(--surface-container-de-emphasis, #272930);
  --color-card: var(--surface-container-de-emphasis, #272930);
  --color-card-hover: var(--surface-container-high, #363840);
  --color-border: var(--divider, #363840);
  --color-input: var(--surface-container, #2c2e35);
  --color-secondary: var(--surface-container-high, #363840);
  --color-secondary-hover: var(--surface-container-highest, #42444d);
  --color-accent: var(--surface-container-highest, #42444d);
  --color-accent-foreground: var(--on-surface-default, #e6e8f0);
  --color-muted: var(--surface-container, #2c2e35);
  --color-muted-foreground: var(--on-surface-de-emphasis, #adafb8);
  --color-foreground: var(--on-surface-default, #e6e8f0);
  --color-disabled: var(--surface-container, #2c2e35);
  --color-disabled-foreground: var(--disabled-foreground, #797c90);
}

input[type="date"]::-webkit-calendar-picker-indicator {
  cursor: pointer;
  opacity: .6;
}

@media (prefers-color-scheme: dark) {
  :root:not(.light) input[type="date"]::-webkit-calendar-picker-indicator {
    filter: invert();
    opacity: .7;
  }
}

.dark input[type="date"]::-webkit-calendar-picker-indicator {
  filter: invert();
  opacity: .7;
}

@property --tw-translate-x {
  syntax: "*";
  inherits: false;
  initial-value: 0;
}

@property --tw-translate-y {
  syntax: "*";
  inherits: false;
  initial-value: 0;
}

@property --tw-translate-z {
  syntax: "*";
  inherits: false;
  initial-value: 0;
}

@property --tw-rotate-x {
  syntax: "*";
  inherits: false
}

@property --tw-rotate-y {
  syntax: "*";
  inherits: false
}

@property --tw-rotate-z {
  syntax: "*";
  inherits: false
}

@property --tw-skew-x {
  syntax: "*";
  inherits: false
}

@property --tw-skew-y {
  syntax: "*";
  inherits: false
}

@property --tw-border-style {
  syntax: "*";
  inherits: false;
  initial-value: solid;
}

@property --tw-font-weight {
  syntax: "*";
  inherits: false
}

@property --tw-ordinal {
  syntax: "*";
  inherits: false
}

@property --tw-slashed-zero {
  syntax: "*";
  inherits: false
}

@property --tw-numeric-figure {
  syntax: "*";
  inherits: false
}

@property --tw-numeric-spacing {
  syntax: "*";
  inherits: false
}

@property --tw-numeric-fraction {
  syntax: "*";
  inherits: false
}

@property --tw-shadow {
  syntax: "*";
  inherits: false;
  initial-value: 0 0 #0000;
}

@property --tw-shadow-color {
  syntax: "*";
  inherits: false
}

@property --tw-shadow-alpha {
  syntax: "<percentage>";
  inherits: false;
  initial-value: 100%;
}

@property --tw-inset-shadow {
  syntax: "*";
  inherits: false;
  initial-value: 0 0 #0000;
}

@property --tw-inset-shadow-color {
  syntax: "*";
  inherits: false
}

@property --tw-inset-shadow-alpha {
  syntax: "<percentage>";
  inherits: false;
  initial-value: 100%;
}

@property --tw-ring-color {
  syntax: "*";
  inherits: false
}

@property --tw-ring-shadow {
  syntax: "*";
  inherits: false;
  initial-value: 0 0 #0000;
}

@property --tw-inset-ring-color {
  syntax: "*";
  inherits: false
}

@property --tw-inset-ring-shadow {
  syntax: "*";
  inherits: false;
  initial-value: 0 0 #0000;
}

@property --tw-ring-inset {
  syntax: "*";
  inherits: false
}

@property --tw-ring-offset-width {
  syntax: "<length>";
  inherits: false;
  initial-value: 0;
}

@property --tw-ring-offset-color {
  syntax: "*";
  inherits: false;
  initial-value: #fff;
}

@property --tw-ring-offset-shadow {
  syntax: "*";
  inherits: false;
  initial-value: 0 0 #0000;
}

@property --tw-content {
  syntax: "*";
  inherits: false;
  initial-value: "";
}

]]></style><rect width="100%" height="100%" fill="#070b14"/><defs><clipPath id="canvas-clip"><rect width="800" height="450" rx="8"></rect></clipPath><linearGradient id="gradient-shortcut" x1="0%" y1="0%" x2="100%" y2="100%"><stop offset="0%" stop-color="#10b981" stop-opacity="0.8"></stop><stop offset="100%" stop-color="#3b82f6" stop-opacity="0.9"></stop></linearGradient></defs><g clip-path="url(#canvas-clip)"><path d="M0,148.773C8.889,156.863,17.778,164.953,26.667,173.605C35.556,182.256,44.444,191.479,53.333,200.682C62.222,209.885,71.111,219.47,80,228.822C88.889,238.175,97.778,247.703,106.667,256.796C115.556,265.889,124.444,274.943,133.333,283.379C142.222,291.815,151.111,300.001,160,307.412C168.889,314.822,177.778,321.781,186.667,327.842C195.556,333.903,204.444,339.331,213.333,343.778C222.222,348.225,231.111,351.884,240,354.522C248.889,357.16,257.778,359.606,266.667,359.606C275.556,359.606,284.444,359.34,293.333,358.807C302.222,358.274,311.111,355.302,320,352.16C328.889,349.018,337.778,344.861,346.667,339.955C355.556,335.05,364.444,329.181,373.333,322.727C382.222,316.272,391.111,308.949,400,301.227C408.889,293.505,417.778,285.047,426.667,276.395C435.556,267.744,444.444,258.521,453.333,249.318C462.222,240.115,471.111,230.53,480,221.178C488.889,211.825,497.778,202.297,506.667,193.204C515.556,184.111,524.444,175.057,533.333,166.621C542.222,158.185,551.111,149.999,560,142.588C568.889,135.178,577.778,128.219,586.667,122.158C595.556,116.097,604.444,110.669,613.333,106.222C622.222,101.775,631.111,98.116,640,95.478C648.889,92.84,657.778,90.394,666.667,90.394C675.556,90.394,684.444,90.66,693.333,91.193C702.222,91.726,711.111,94.698,720,97.84C728.889,100.982,737.778,105.139,746.667,110.045C755.556,114.95,764.444,120.819,773.333,127.273C782.222,133.728,791.111,141.251,800,148.773" fill="none" stroke="rgba(20, 184, 166, 0.18)" stroke-width="1" stroke-dasharray="none"></path><path d="M0,172.429C8.889,181.336,17.778,190.243,26.667,199.43C35.556,208.616,44.444,218.194,53.333,227.549C62.222,236.903,71.111,246.443,80,255.556C88.889,264.669,97.778,273.754,106.667,282.228C115.556,290.702,124.444,298.935,133.333,306.399C142.222,313.863,151.111,320.884,160,327.012C168.889,333.14,177.778,338.643,186.667,343.167C195.556,347.691,204.444,351.435,213.333,354.157C222.222,356.88,231.111,359.503,240,359.503C248.889,359.503,257.778,359.325,266.667,358.97C275.556,358.615,284.444,355.641,293.333,352.582C302.222,349.524,311.111,345.448,320,340.618C328.889,335.788,337.778,329.992,346.667,323.601C355.556,317.211,364.444,309.947,373.333,302.275C382.222,294.603,391.111,286.189,400,277.571C408.889,268.954,417.778,259.757,426.667,250.57C435.556,241.384,444.444,231.806,453.333,222.451C462.222,213.097,471.111,203.557,480,194.444C488.889,185.331,497.778,176.246,506.667,167.772C515.556,159.298,524.444,151.065,533.333,143.601C542.222,136.137,551.111,129.116,560,122.988C568.889,116.86,577.778,111.357,586.667,106.833C595.556,102.309,604.444,98.565,613.333,95.843C622.222,93.12,631.111,90.497,640,90.497C648.889,90.497,657.778,90.675,666.667,91.03C675.556,91.385,684.444,94.359,693.333,97.418C702.222,100.476,711.111,104.552,720,109.382C728.889,114.212,737.778,120.008,746.667,126.399C755.556,132.789,764.444,140.053,773.333,147.725C782.222,155.397,791.111,163.913,800,172.429" fill="none" stroke="rgba(139, 92, 246, 0.15)" stroke-width="1.5" stroke-dasharray="4 4"></path><path d="M0,198.18C8.889,207.549,17.778,216.919,26.667,226.274C35.556,235.63,44.444,245.18,53.333,254.313C62.222,263.446,71.111,272.56,80,281.071C88.889,289.582,97.778,297.861,106.667,305.378C115.556,312.895,124.444,319.978,133.333,326.173C142.222,332.367,151.111,337.944,160,342.545C168.889,347.147,177.778,350.974,186.667,353.781C195.556,356.588,204.444,359.388,213.333,359.388C222.222,359.388,231.111,359.299,240,359.121C248.889,358.944,257.778,355.968,266.667,352.993C275.556,350.018,284.444,346.025,293.333,341.271C302.222,336.517,311.111,330.793,320,324.467C328.889,318.142,337.778,310.937,346.667,303.317C355.556,295.696,364.444,287.326,373.333,278.743C382.222,270.16,391.111,260.99,400,251.82C408.889,242.651,417.778,233.081,426.667,223.726C435.556,214.37,444.444,204.82,453.333,195.687C462.222,186.554,471.111,177.44,480,168.929C488.889,160.418,497.778,152.139,506.667,144.622C515.556,137.105,524.444,130.022,533.333,123.827C542.222,117.633,551.111,112.056,560,107.455C568.889,102.853,577.778,99.026,586.667,96.219C595.556,93.412,604.444,90.612,613.333,90.612C622.222,90.612,631.111,90.701,640,90.879C648.889,91.056,657.778,94.032,666.667,97.007C675.556,99.982,684.444,103.975,693.333,108.729C702.222,113.483,711.111,119.207,720,125.533C728.889,131.858,737.778,139.063,746.667,146.683C755.556,154.304,764.444,162.674,773.333,171.257C782.222,179.84,791.111,189.01,800,198.18" fill="none" stroke="rgba(20, 184, 166, 0.18)" stroke-width="2" stroke-dasharray="none"></path><path d="M0,225C8.889,234.458,17.778,243.917,26.667,253.068C35.556,262.22,44.444,271.362,53.333,279.909C62.222,288.457,71.111,296.782,80,304.351C88.889,311.92,97.778,319.064,106.667,325.325C115.556,331.585,124.444,337.235,133.333,341.913C142.222,346.591,151.111,350.501,160,353.393C168.889,356.284,177.778,359.26,186.667,359.26C195.556,359.26,204.444,359.26,213.333,359.26C222.222,359.26,231.111,356.284,240,353.393C248.889,350.501,257.778,346.591,266.667,341.913C275.556,337.235,284.444,331.585,293.333,325.325C302.222,319.064,311.111,311.92,320,304.351C328.889,296.782,337.778,288.457,346.667,279.909C355.556,271.362,364.444,262.22,373.333,253.068C382.222,243.917,391.111,234.356,400,225C408.889,215.644,417.778,206.083,426.667,196.932C435.556,187.78,444.444,178.638,453.333,170.091C462.222,161.543,471.111,153.218,480,145.649C488.889,138.08,497.778,130.936,506.667,124.675C515.556,118.415,524.444,112.765,533.333,108.087C542.222,103.409,551.111,99.499,560,96.607C568.889,93.716,577.778,90.74,586.667,90.74C595.556,90.74,604.444,90.74,613.333,90.74C622.222,90.74,631.111,93.716,640,96.607C648.889,99.499,657.778,103.409,666.667,108.087C675.556,112.765,684.444,118.415,693.333,124.675C702.222,130.936,711.111,138.08,720,145.649C728.889,153.218,737.778,161.543,746.667,170.091C755.556,178.638,764.444,187.78,773.333,196.932C782.222,206.083,791.111,215.542,800,225" fill="none" stroke="rgba(139, 92, 246, 0.15)" stroke-width="1" stroke-dasharray="4 4"></path><path d="M0,251.82C8.889,260.99,17.778,270.16,26.667,278.743C35.556,287.326,44.444,295.696,53.333,303.317C62.222,310.937,71.111,318.142,80,324.467C88.889,330.793,97.778,336.517,106.667,341.271C115.556,346.025,124.444,350.018,133.333,352.993C142.222,355.968,151.111,358.944,160,359.121C168.889,359.299,177.778,359.388,186.667,359.388C195.556,359.388,204.444,356.588,213.333,353.781C222.222,350.974,231.111,347.147,240,342.545C248.889,337.944,257.778,332.367,266.667,326.173C275.556,319.978,284.444,312.895,293.333,305.378C302.222,297.861,311.111,289.582,320,281.071C328.889,272.56,337.778,263.446,346.667,254.313C355.556,245.18,364.444,235.63,373.333,226.274C382.222,216.919,391.111,207.349,400,198.18C408.889,189.01,417.778,179.84,426.667,171.257C435.556,162.674,444.444,154.304,453.333,146.683C462.222,139.063,471.111,131.858,480,125.533C488.889,119.207,497.778,113.483,506.667,108.729C515.556,103.975,524.444,99.982,533.333,97.007C542.222,94.032,551.111,91.056,560,90.879C568.889,90.701,577.778,90.612,586.667,90.612C595.556,90.612,604.444,93.412,613.333,96.219C622.222,99.026,631.111,102.853,640,107.455C648.889,112.056,657.778,117.633,666.667,123.827C675.556,130.022,684.444,137.105,693.333,144.622C702.222,152.139,711.111,160.418,720,168.929C728.889,177.44,737.778,186.554,746.667,195.687C755.556,204.82,764.444,214.37,773.333,223.726C782.222,233.081,791.111,242.451,800,251.82" fill="none" stroke="rgba(20, 184, 166, 0.18)" stroke-width="1.5" stroke-dasharray="none"></path><path d="M0,277.571C8.889,286.087,17.778,294.603,26.667,302.275C35.556,309.947,44.444,317.211,53.333,323.601C62.222,329.992,71.111,335.788,80,340.618C88.889,345.448,97.778,349.524,106.667,352.582C115.556,355.641,124.444,358.615,133.333,358.97C142.222,359.325,151.111,359.503,160,359.503C168.889,359.503,177.778,356.88,186.667,354.157C195.556,351.435,204.444,347.691,213.333,343.167C222.222,338.643,231.111,333.14,240,327.012C248.889,320.884,257.778,313.863,266.667,306.399C275.556,298.935,284.444,290.702,293.333,282.228C302.222,273.754,311.111,264.669,320,255.556C328.889,246.443,337.778,236.903,346.667,227.549C355.556,218.194,364.444,208.616,373.333,199.43C382.222,190.243,391.111,181.046,400,172.429C408.889,163.811,417.778,155.397,426.667,147.725C435.556,140.053,444.444,132.789,453.333,126.399C462.222,120.008,471.111,114.212,480,109.382C488.889,104.552,497.778,100.476,506.667,97.418C515.556,94.359,524.444,91.385,533.333,91.03C542.222,90.675,551.111,90.497,560,90.497C568.889,90.497,577.778,93.12,586.667,95.843C595.556,98.565,604.444,102.309,613.333,106.833C622.222,111.357,631.111,116.86,640,122.988C648.889,129.116,657.778,136.137,666.667,143.601C675.556,151.065,684.444,159.298,693.333,167.772C702.222,176.246,711.111,185.331,720,194.444C728.889,203.557,737.778,213.097,746.667,222.451C755.556,231.806,764.444,241.384,773.333,250.57C782.222,259.757,791.111,268.664,800,277.571" fill="none" stroke="rgba(139, 92, 246, 0.15)" stroke-width="2" stroke-dasharray="4 4"></path><line x1="120" y1="0" x2="120" y2="450" stroke="rgba(255,255,255,0.03)" stroke-width="1"></line><line x1="232" y1="0" x2="232" y2="450" stroke="rgba(255,255,255,0.03)" stroke-width="1"></line><line x1="344" y1="0" x2="344" y2="450" stroke="rgba(255,255,255,0.03)" stroke-width="1"></line><line x1="456.00000000000006" y1="0" x2="456.00000000000006" y2="450" stroke="rgba(255,255,255,0.03)" stroke-width="1"></line><line x1="568" y1="0" x2="568" y2="450" stroke="rgba(255,255,255,0.03)" stroke-width="1"></line><line x1="680" y1="0" x2="680" y2="450" stroke="rgba(255,255,255,0.03)" stroke-width="1"></line><g transform="translate(32, 292.5)"><rect x="0" y="0" width="16" height="16" rx="2" fill="rgba(59, 132, 246, 0.45)" stroke="rgba(255,255,255,0.1)" stroke-width="0.5"></rect><rect x="18" y="0" width="16" height="16" rx="2" fill="rgba(59, 132, 246, 0.45)" stroke="rgba(255,255,255,0.1)" stroke-width="0.5"></rect><rect x="36" y="0" width="16" height="16" rx="2" fill="rgba(59, 132, 246, 0.45)" stroke="rgba(255,255,255,0.1)" stroke-width="0.5"></rect><rect x="54" y="0" width="16" height="16" rx="2" fill="rgba(59, 132, 246, 0.45)" stroke="rgba(255,255,255,0.1)" stroke-width="0.5"></rect><rect x="0" y="18" width="16" height="16" rx="2" fill="rgba(59, 132, 246, 0.45)" stroke="rgba(255,255,255,0.1)" stroke-width="0.5"></rect><rect x="18" y="18" width="16" height="16" rx="2" fill="rgba(139, 92, 246, 0.25)" stroke="rgba(255,255,255,0.1)" stroke-width="0.5"></rect><rect x="36" y="18" width="16" height="16" rx="2" fill="rgba(59, 132, 246, 0.45)" stroke="rgba(255,255,255,0.1)" stroke-width="0.5"></rect><rect x="54" y="18" width="16" height="16" rx="2" fill="rgba(139, 92, 246, 0.25)" stroke="rgba(255,255,255,0.1)" stroke-width="0.5"></rect><rect x="0" y="36" width="16" height="16" rx="2" fill="rgba(59, 132, 246, 0.45)" stroke="rgba(255,255,255,0.1)" stroke-width="0.5"></rect><rect x="18" y="36" width="16" height="16" rx="2" fill="rgba(59, 132, 246, 0.45)" stroke="rgba(255,255,255,0.1)" stroke-width="0.5"></rect><rect x="36" y="36" width="16" height="16" rx="2" fill="rgba(139, 92, 246, 0.25)" stroke="rgba(255,255,255,0.1)" stroke-width="0.5"></rect><rect x="54" y="36" width="16" height="16" rx="2" fill="rgba(139, 92, 246, 0.25)" stroke="rgba(255,255,255,0.1)" stroke-width="0.5"></rect><rect x="0" y="54" width="16" height="16" rx="2" fill="rgba(59, 132, 246, 0.45)" stroke="rgba(255,255,255,0.1)" stroke-width="0.5"></rect><rect x="18" y="54" width="16" height="16" rx="2" fill="rgba(139, 92, 246, 0.25)" stroke="rgba(255,255,255,0.1)" stroke-width="0.5"></rect><rect x="36" y="54" width="16" height="16" rx="2" fill="rgba(139, 92, 246, 0.25)" stroke="rgba(255,255,255,0.1)" stroke-width="0.5"></rect><rect x="54" y="54" width="16" height="16" rx="2" fill="rgba(59, 132, 246, 0.45)" stroke="rgba(255,255,255,0.1)" stroke-width="0.5"></rect></g><g transform="translate(360, 36)"><circle cx="0" cy="0" r="60" fill="none" stroke="rgba(255,255,255,0.06)" stroke-width="1"></circle></g></g></svg>